<svg width="16" height="16" viewBox="0 0 16 16" fill="none" xmlns="http://www.w3.org/2000/svg">
<path d="M4.7635 2.4745C4.63613 2.6057 4.63613 2.81931 4.7635 2.95051L8.94721 7.25983C9.40118 7.72743 9.40118 8.2724 8.9668 8.71982L4.7635 13.0493C4.63613 13.1805 4.63613 13.3941 4.7635 13.5253L5.77595 14.5682C5.90332 14.6994 6.11071 14.6994 6.23808 14.5682L11.1452 9.51205C11.2775 9.37581 11.3346 9.23956 11.3346 9.04445V6.98903C11.3346 6.79391 11.2775 6.61898 11.1452 6.48274L6.23808 1.43165C6.11071 1.30045 5.90332 1.30045 5.77595 1.43165L4.7635 2.4745V2.4745Z" fill="white"/>
</svg>
