<svg width="24" height="25" viewBox="0 0 24 25" fill="none" xmlns="http://www.w3.org/2000/svg">
<path d="M20.317 4.82305C18.7873 4.12117 17.147 3.60406 15.4319 3.30788C15.4007 3.30217 15.3695 3.31645 15.3534 3.34502C15.1424 3.72024 14.9087 4.20974 14.7451 4.59448C12.9004 4.31831 11.0652 4.31831 9.25832 4.59448C9.09465 4.20118 8.85248 3.72024 8.64057 3.34502C8.62448 3.3174 8.59328 3.30312 8.56205 3.30788C6.84791 3.60311 5.20756 4.12023 3.67694 4.82305C3.66368 4.82877 3.65233 4.8383 3.64479 4.85067C0.533392 9.49903 -0.31895 14.0331 0.0991801 18.511C0.101072 18.5329 0.11337 18.5539 0.130398 18.5672C2.18321 20.0748 4.17171 20.99 6.12328 21.5966C6.15451 21.6061 6.18761 21.5947 6.20748 21.569C6.66913 20.9385 7.08064 20.2738 7.43348 19.5748C7.4543 19.5338 7.43442 19.4853 7.39186 19.4691C6.73913 19.2215 6.1176 18.9196 5.51973 18.5767C5.47244 18.5491 5.46865 18.4815 5.51216 18.4491C5.63797 18.3548 5.76382 18.2567 5.88395 18.1577C5.90569 18.1396 5.93598 18.1358 5.96153 18.1472C9.88928 19.9405 14.1415 19.9405 18.023 18.1472C18.0485 18.1348 18.0788 18.1387 18.1015 18.1567C18.2216 18.2558 18.3475 18.3548 18.4742 18.4491C18.5177 18.4815 18.5149 18.5491 18.4676 18.5767C17.8697 18.9262 17.2482 19.2215 16.5945 19.4681C16.552 19.4843 16.533 19.5338 16.5538 19.5748C16.9143 20.2728 17.3258 20.9376 17.7789 21.568C17.7978 21.5947 17.8319 21.6061 17.8631 21.5966C19.8241 20.99 21.8126 20.0748 23.8654 18.5672C23.8834 18.5539 23.8948 18.5339 23.8967 18.512C24.3971 13.335 23.0585 8.83812 20.3482 4.85162C20.3416 4.8383 20.3303 4.82877 20.317 4.82305ZM8.02002 15.7845C6.8375 15.7845 5.86313 14.6988 5.86313 13.3655C5.86313 12.0322 6.8186 10.9466 8.02002 10.9466C9.23087 10.9466 10.1958 12.0418 10.1769 13.3655C10.1769 14.6988 9.22141 15.7845 8.02002 15.7845ZM15.9947 15.7845C14.8123 15.7845 13.8379 14.6988 13.8379 13.3655C13.8379 12.0322 14.7933 10.9466 15.9947 10.9466C17.2056 10.9466 18.1705 12.0418 18.1516 13.3655C18.1516 14.6988 17.2056 15.7845 15.9947 15.7845Z" fill="white"/>
</svg>
