<svg width="24" height="25" viewBox="0 0 24 25" fill="none" xmlns="http://www.w3.org/2000/svg">
<path d="M12.0914 1.95312C17.9512 1.95312 22.7137 6.85045 22.7137 12.6647C22.7137 18.4772 17.9548 23.3701 12.0887 23.3701L1.28516 23.3817V12.4799C1.28516 6.66741 6.22444 1.95312 12.0914 1.95312ZM12.195 6.02723C9.8798 6.02455 7.73426 7.23438 6.53694 9.21473C5.34944 11.1862 5.29855 13.6406 6.4048 15.6612L5.21373 19.4621L9.49408 18.5031C11.945 19.5969 14.82 19.1067 16.7584 17.2621C18.6959 15.4281 19.3119 12.5942 18.3093 10.1219C17.2959 7.64152 14.8807 6.02366 12.2021 6.02813L12.195 6.02723Z" fill="white"/>
</svg>
