<svg width="24" height="25" viewBox="0 0 24 25" fill="none" xmlns="http://www.w3.org/2000/svg">
<g clip-path="url(#clip0_2055_2251)">
<path fill-rule="evenodd" clip-rule="evenodd" d="M11.9997 1.16748C9.15088 1.16896 6.39552 2.17794 4.22626 4.014C2.057 5.85007 0.615293 8.39349 0.158934 11.1895C-0.297425 13.9855 0.261316 16.8517 1.73526 19.2757C3.2092 21.6996 5.50223 23.5232 8.20432 24.4205C8.80044 24.5311 9.02499 24.1616 9.02499 23.8475C9.02499 23.5333 9.01306 22.6225 9.00909 21.6267C5.67079 22.3479 4.96538 20.218 4.96538 20.218C4.42091 18.8349 3.63403 18.4714 3.63403 18.4714C2.5451 17.7324 3.7155 17.7463 3.7155 17.7463C4.92166 17.8312 5.55555 18.9772 5.55555 18.9772C6.6246 20.8008 8.36328 20.2733 9.04684 19.9651C9.15414 19.1925 9.46612 18.667 9.80989 18.3686C7.14322 18.0683 4.34143 17.0449 4.34143 12.4729C4.3249 11.2872 4.76741 10.1405 5.5774 9.27016C5.4542 8.96984 5.04287 7.75671 5.69463 6.10891C5.69463 6.10891 6.70209 5.78884 8.99519 7.33192C10.9621 6.7971 13.0373 6.7971 15.0041 7.33192C17.2952 5.78884 18.3007 6.10891 18.3007 6.10891C18.9544 7.75276 18.5431 8.96589 18.4199 9.27016C19.2325 10.1407 19.6759 11.2893 19.6579 12.4769C19.6579 17.0587 16.8501 18.0683 14.1795 18.3627C14.6087 18.7342 14.9922 19.4593 14.9922 20.5736C14.9922 22.17 14.9783 23.4543 14.9783 23.8475C14.9783 24.1656 15.1949 24.537 15.8029 24.4205C18.5053 23.5231 20.7986 21.6992 22.2725 19.2748C23.7464 16.8504 24.3049 13.9838 23.848 11.1875C23.3911 8.39128 21.9487 5.84783 19.7787 4.01209C17.6087 2.17634 14.8527 1.16802 12.0036 1.16748H11.9997Z" fill="white"/>
<path d="M8.02637 20.6427C8.02637 20.7395 7.9151 20.8225 7.77203 20.8244C7.62896 20.8264 7.51172 20.7474 7.51172 20.6506C7.51172 20.5537 7.62299 20.4708 7.76606 20.4688C7.90913 20.4668 8.02637 20.5439 8.02637 20.6427Z" fill="white"/>
<path d="M8.94238 20.4904C8.96027 20.5872 8.86091 20.688 8.71784 20.7117C8.57477 20.7354 8.44959 20.6781 8.4317 20.5833C8.41382 20.4884 8.51715 20.3857 8.65624 20.36C8.79534 20.3343 8.9245 20.3936 8.94238 20.4904Z" fill="white"/>
<path d="M7.04617 20.5754C7.01637 20.6682 6.88124 20.7097 6.74612 20.6702C6.611 20.6307 6.52158 20.5201 6.54741 20.4252C6.57325 20.3304 6.71036 20.2869 6.84747 20.3304C6.98457 20.3738 7.07201 20.4786 7.04617 20.5754Z" fill="white"/>
<path d="M6.14367 20.1882C6.0781 20.2613 5.94497 20.2416 5.83568 20.1428C5.72639 20.044 5.70055 19.9096 5.76612 19.8385C5.8317 19.7674 5.96483 19.7871 6.0781 19.884C6.19136 19.9808 6.21322 20.1171 6.14367 20.1882V20.1882Z" fill="white"/>
<path d="M5.50486 19.5243C5.43133 19.5756 5.30614 19.5243 5.23659 19.4215C5.21736 19.4031 5.20207 19.381 5.19162 19.3566C5.18117 19.3321 5.17578 19.3058 5.17578 19.2793C5.17578 19.2527 5.18117 19.2264 5.19162 19.202C5.20207 19.1775 5.21736 19.1554 5.23659 19.137C5.31011 19.0876 5.43531 19.137 5.50486 19.2378C5.5744 19.3385 5.57639 19.4729 5.50486 19.5243V19.5243Z" fill="white"/>
<path d="M5.03123 18.8391C4.99008 18.8597 4.943 18.8655 4.89805 18.8554C4.8531 18.8453 4.81308 18.82 4.78483 18.7838C4.70734 18.7008 4.69143 18.5862 4.75104 18.5348C4.81066 18.4835 4.91797 18.5072 4.99546 18.5902C5.07296 18.6731 5.09084 18.7877 5.03123 18.8391Z" fill="white"/>
<path d="M4.54358 18.2996C4.51775 18.3589 4.42237 18.3767 4.34487 18.3352C4.26738 18.2937 4.20976 18.2166 4.23758 18.1554C4.26539 18.0941 4.35879 18.0783 4.43628 18.1198C4.51378 18.1613 4.57339 18.2403 4.54358 18.2996Z" fill="white"/>
</g>
<defs>
<clipPath id="clip0_2055_2251">
<rect width="24" height="24" fill="white" transform="translate(0 0.66748)"/>
</clipPath>
</defs>
</svg>
