<svg width="40" height="40" viewBox="0 0 40 40" fill="none" xmlns="http://www.w3.org/2000/svg">
<path fill-rule="evenodd" clip-rule="evenodd" d="M21.5919 19.9999L30.9216 29.3298C31.3593 29.7687 31.3593 30.4832 30.9216 30.9209C30.4828 31.3597 29.7683 31.3597 29.3295 30.9209L20 21.5918L10.6705 30.9209C10.2317 31.3597 9.51721 31.3597 9.07839 30.9209C8.64069 30.4832 8.64069 29.7687 9.07839 29.3298L18.4081 19.9999L9.07827 10.6705C8.64058 10.2316 8.64058 9.51711 9.07827 9.07828C9.5171 8.64057 10.2316 8.64057 10.6704 9.07828L20 18.408L29.3296 9.07828C29.7684 8.64057 30.4829 8.64057 30.9217 9.07828C31.3594 9.51711 31.3594 10.2316 30.9217 10.6705L21.5919 19.9999Z" fill="white" stroke="white"/>
</svg>
