<svg width="40" height="40" viewBox="0 0 40 40" fill="none" xmlns="http://www.w3.org/2000/svg">
<path fill-rule="evenodd" clip-rule="evenodd" d="M7 11C7 10.4477 7.44772 10 8 10H32C32.5523 10 33 10.4477 33 11V12C33 12.5523 32.5523 13 32 13H8C7.44772 13 7 12.5523 7 12V11ZM7 19C7 18.4477 7.44772 18 8 18H32C32.5523 18 33 18.4477 33 19V20C33 20.5523 32.5523 21 32 21H8C7.44772 21 7 20.5523 7 20V19ZM33 28C33 27.4477 32.5523 27 32 27H8C7.44772 27 7 27.4477 7 28V29C7 29.5523 7.44772 30 8 30H32C32.5523 30 33 29.5523 33 29V28Z" fill="white"/>
</svg>
