<svg width="24" height="25" viewBox="0 0 24 25" fill="none" xmlns="http://www.w3.org/2000/svg">
<g clip-path="url(#clip0_2055_2246)">
<path d="M24 12.6675C24 6.04006 18.6274 0.66748 12 0.66748C5.37258 0.66748 0 6.04006 0 12.6675C0 19.2949 5.37258 24.6675 12 24.6675C18.6274 24.6675 24 19.2949 24 12.6675Z" fill="white"/>
<path fill-rule="evenodd" clip-rule="evenodd" d="M11.9994 6.23877C9.39581 6.23877 7.28516 8.39902 7.28516 11.0638V18.0702C7.28516 18.3999 7.54638 18.6673 7.86861 18.6673H16.1303C16.4525 18.6673 16.7137 18.3999 16.7137 18.0702V11.0638C16.7137 8.39902 14.6031 6.23877 11.9994 6.23877Z" fill="#121312"/>
</g>
<defs>
<clipPath id="clip0_2055_2246">
<rect width="24" height="24" fill="white" transform="translate(0 0.66748)"/>
</clipPath>
</defs>
</svg>
