<svg width="126" height="48" viewBox="0 0 126 48" fill="none" xmlns="http://www.w3.org/2000/svg">
<path d="M62.3763 22.9917C61.2281 22.5164 59.8258 22.1202 58.1693 21.8024H58.1341C56.5248 21.5099 55.3175 21.2414 54.5128 20.9969C53.7082 20.7538 53.0753 20.4243 52.6135 20.0093C52.1517 19.5949 51.9215 19.0216 51.9215 18.2895C51.9215 17.2162 52.3122 16.3991 53.0929 15.8382C53.8743 15.2773 54.9035 14.9964 56.1813 14.9964C57.578 14.9964 58.7071 15.3622 59.5716 16.0943C60.3474 16.7518 60.8226 17.587 60.9972 18.5986C61.0317 18.8003 61.1971 18.9491 61.3956 18.9513L65.3238 18.9817C65.5646 18.9839 65.7575 18.7706 65.7335 18.5231C65.6019 17.1698 65.1689 15.9391 64.4354 14.8317C63.6188 13.6003 62.4945 12.6424 61.0626 11.9588C59.6308 11.276 58.0039 10.9342 56.1813 10.9342C54.4537 10.9342 52.8979 11.2637 51.5132 11.9225C50.1292 12.5814 49.0521 13.4958 48.2826 14.667C47.5132 15.8382 47.1288 17.1553 47.1288 18.6189C47.1288 20.2291 47.4717 21.5223 48.158 22.4975C48.8444 23.4735 49.7434 24.2115 50.8557 24.7115C51.968 25.2115 53.3048 25.6077 54.8669 25.9009L55.0443 25.9372C56.7001 26.2543 57.9377 26.5351 58.7543 26.7789C59.5709 27.0235 60.2151 27.3645 60.6888 27.8035C61.1619 28.2426 61.3984 28.8405 61.3984 29.5966C61.3984 30.6706 60.9725 31.5116 60.1207 32.1212C59.2689 32.7315 58.1679 33.0363 56.8191 33.0363C55.2091 33.0363 53.9081 32.6154 52.9141 31.7736C52.0095 31.008 51.4773 30.0248 51.3175 28.8245C51.29 28.617 51.1225 28.4595 50.9197 28.4566L46.9965 28.3957C46.7578 28.392 46.5649 28.5996 46.5832 28.8449C46.6945 30.3208 47.1422 31.651 47.9264 32.8352C48.7902 34.1407 49.9792 35.1653 51.4942 35.9091C53.0084 36.6536 54.748 37.0252 56.7128 37.0252C58.5347 37.0252 60.1679 36.6841 61.6117 36.0006C63.0549 35.3177 64.1855 34.3722 65.0021 33.1647C65.8187 31.9572 66.227 30.5973 66.227 29.0843C66.227 27.4741 65.8715 26.1752 65.1619 25.1868C64.4523 24.1992 63.523 23.467 62.3756 22.991L62.3763 22.9917Z" fill="white"/>
<path d="M86.5001 32.8541H85.8869C85.5321 32.8541 85.2534 32.7569 85.0527 32.561C84.8514 32.3665 84.7507 32.0486 84.7507 31.6096V24.6201C84.7507 22.4003 84.0644 20.711 82.6923 19.5521C81.3195 18.394 79.7032 17.8033 77.171 17.8033C74.7803 17.8033 72.9126 18.3388 71.4456 19.3874C70.108 20.3438 69.3019 21.6536 69.026 23.319C68.983 23.5781 69.1731 23.8153 69.4272 23.8153H73.0351C73.2161 23.8153 73.378 23.6927 73.4258 23.5127C73.5906 22.8967 73.9538 22.3938 74.5156 22.0041C75.1661 21.5528 75.939 21.3271 76.957 21.3271C78.8767 21.3271 80.2417 22.5469 80.2417 24.3639V24.9321C80.2417 25.1643 80.0594 25.3523 79.8341 25.3523H76.5663C73.9158 25.3523 71.9038 25.8893 70.5318 26.9625C69.159 28.0365 68.4727 29.5611 68.4727 31.5363C68.4727 33.2445 69.0999 34.5863 70.3544 35.5616C71.2956 36.293 72.4206 36.7153 73.5786 36.9004C74.4635 37.0419 75.3723 37.0934 76.2594 36.9468C77.1886 36.7937 77.9433 36.399 78.6986 35.8358C79.3773 35.3308 79.9433 34.6835 80.46 33.894C80.712 33.4477 81.373 33.627 81.373 34.1429V34.7633C81.3723 35.891 82.2586 36.8053 83.3526 36.8053H86.5001C86.7254 36.8053 86.9077 36.6174 86.9077 36.3852V33.2736C86.9077 33.0413 86.7254 32.8534 86.5001 32.8534V32.8541ZM80.2425 29.0851C80.2425 29.9878 80.0587 30.7744 79.6919 31.4449C78.9232 32.8512 77.5476 33.5856 75.9996 33.5856C75.0999 33.5856 74.3783 33.3664 73.8341 32.9274C73.2893 32.4884 73.0175 31.9028 73.0175 31.1706C73.0175 30.3419 73.3195 29.7011 73.9228 29.2498C74.5262 28.7992 75.3836 28.5728 76.4966 28.5728H79.8348C80.0601 28.5728 80.2425 28.7607 80.2425 28.9929V29.0851V29.0851Z" fill="white"/>
<path d="M99.6517 11.202H94.9569C92.4803 11.202 90.4725 13.2715 90.4725 15.8244V17.8555C90.4725 18.0877 90.2902 18.2757 90.0649 18.2757H87.3842C87.1589 18.2757 86.9766 18.4636 86.9766 18.6958V21.8437C86.9766 22.0759 87.1589 22.2639 87.3842 22.2639H90.0649C90.2902 22.2639 90.4725 22.4518 90.4725 22.684V36.3859C90.4725 36.6181 90.6548 36.806 90.8801 36.806H94.538C94.7633 36.806 94.9456 36.6181 94.9456 36.3859V22.684C94.9456 22.4518 95.1279 22.2639 95.3532 22.2639H99.6158C99.841 22.2639 100.023 22.0759 100.023 21.8437V18.6958C100.023 18.4636 99.841 18.2757 99.6158 18.2757H95.3532C95.1279 18.2757 94.9456 18.0877 94.9456 17.8555V16.0305C94.9456 15.5661 95.3109 15.1902 95.7608 15.1902H99.651C99.8762 15.1902 100.059 15.0022 100.059 14.77V11.6221C100.059 11.3899 99.8762 11.202 99.651 11.202H99.6517Z" fill="white"/>
<path d="M117.573 22.0592C116.78 20.6935 115.697 19.6442 114.325 18.9121C112.952 18.1806 111.366 17.804 109.568 17.804C107.77 17.804 106.219 18.2111 104.846 19.0035C103.474 19.7966 102.409 20.9185 101.652 22.3698C100.894 23.8219 100.516 25.5228 100.516 27.4748C100.516 29.4268 100.906 31.0552 101.687 32.5065C102.468 33.9578 103.586 35.0739 105.042 35.8547C106.497 36.6355 108.207 37.0259 110.171 37.0259C111.686 37.0259 113.041 36.7393 114.236 36.166C115.431 35.5935 116.395 34.8061 117.129 33.8062C117.757 32.9499 118.185 32.0123 118.415 30.9942C118.475 30.7301 118.281 30.4761 118.018 30.4761H114.343C114.167 30.4761 114.013 30.5937 113.957 30.7657C113.698 31.5545 113.241 32.1778 112.585 32.635C111.851 33.1473 110.94 33.4034 109.852 33.4034C108.952 33.4034 108.166 33.2082 107.491 32.8178C106.817 32.4281 106.285 31.8788 105.894 31.1713C105.74 30.8919 105.614 30.5966 105.513 30.2925C105.405 29.966 105.328 29.6293 105.275 29.2882C105.256 29.1692 105.239 29.0488 105.225 28.9283C105.198 28.6801 105.389 28.4632 105.631 28.4632H118.303C118.509 28.4632 118.685 28.3064 118.708 28.0952C118.725 27.9407 118.737 27.7832 118.744 27.6214C118.756 27.329 118.761 27.0605 118.761 26.8166C118.761 25.0119 118.365 23.4264 117.572 22.06L117.573 22.0592ZM113.765 25.279H105.829C105.568 25.279 105.372 25.0301 105.429 24.7681C105.556 24.1941 105.776 23.676 106.088 23.2116C106.49 22.6144 107.011 22.1565 107.65 21.8394C108.29 21.5222 108.987 21.3633 109.745 21.3633C110.975 21.3633 111.993 21.7051 112.798 22.388C113.489 22.9743 113.943 23.7667 114.164 24.7659C114.221 25.0286 114.026 25.279 113.765 25.279V25.279Z" fill="white"/>
<path d="M37.4591 23.9975H33.9801C32.941 23.9975 32.099 24.8654 32.099 25.9364V31.1416C32.099 32.2126 31.2571 33.0805 30.218 33.0805H16.3771C15.3381 33.0805 14.4961 33.9484 14.4961 35.0195V38.6057C14.4961 39.6767 15.3381 40.5446 16.3771 40.5446H31.0191C32.0582 40.5446 32.8882 39.6767 32.8882 38.6057V35.7284C32.8882 34.6574 33.7302 33.8976 34.7692 33.8976H37.4584C38.4975 33.8976 39.3395 33.0297 39.3395 31.9586V25.9139C39.3395 24.8429 38.4975 23.9975 37.4584 23.9975H37.4591Z" fill="white"/>
<path d="M14.495 16.873C14.495 15.8019 15.337 14.934 16.376 14.934H30.2085C31.2476 14.934 32.0895 14.0661 32.0895 12.9951V9.40886C32.0895 8.33779 31.2476 7.46991 30.2085 7.46991H15.5742C14.5351 7.46991 13.6932 8.33779 13.6932 9.40886V12.1722C13.6932 13.2432 12.8512 14.1111 11.8122 14.1111H9.13493C8.09586 14.1111 7.25391 14.979 7.25391 16.0501V22.1013C7.25391 23.1724 8.09938 23.9967 9.13845 23.9967H12.6175C13.6566 23.9967 14.4985 23.1289 14.4985 22.0578L14.495 16.8737V16.873Z" fill="white"/>
<path d="M21.66 20.2277H25.0018C26.0909 20.2277 26.9744 21.1391 26.9744 22.261V25.7057C26.9744 26.8283 26.0902 27.739 25.0018 27.739H21.66C20.571 27.739 19.6875 26.8275 19.6875 25.7057V22.261C19.6875 21.1384 20.5717 20.2277 21.66 20.2277V20.2277Z" fill="white"/>
</svg>
