<svg width="170" height="66" viewBox="0 0 170 66" fill="none" xmlns="http://www.w3.org/2000/svg">
<path d="M84.1612 31.8025C82.6121 31.1588 80.7201 30.6223 78.4852 30.1919H78.4377C76.2664 29.7959 74.6375 29.4323 73.5519 29.1012C72.4662 28.772 71.6123 28.3258 70.9893 27.7638C70.3662 27.2027 70.0556 26.4264 70.0556 25.4348C70.0556 23.9815 70.5827 22.875 71.6361 22.1154C72.6904 21.3558 74.079 20.9755 75.8029 20.9755C77.6873 20.9755 79.2108 21.4708 80.3772 22.4623C81.4239 23.3526 82.065 24.4836 82.3006 25.8535C82.3471 26.1266 82.5703 26.3281 82.8382 26.331L88.1381 26.3723C88.4629 26.3753 88.7232 26.0864 88.6909 25.7513C88.5133 23.9186 87.9291 22.252 86.9394 20.7525C85.8377 19.0849 84.3208 17.7878 82.3889 16.8621C80.457 15.9374 78.262 15.4746 75.8029 15.4746C73.4721 15.4746 71.373 15.9207 69.5047 16.813C67.6374 17.7052 66.1842 18.9434 65.146 20.5294C64.1079 22.1154 63.5893 23.899 63.5893 25.881C63.5893 28.0615 64.0518 29.8126 64.9779 31.1333C65.904 32.455 67.1169 33.4543 68.6176 34.1314C70.1183 34.8084 71.922 35.345 74.0296 35.742L74.269 35.7911C76.5029 36.2205 78.1727 36.6008 79.2745 36.931C80.3762 37.2621 81.2453 37.724 81.8845 38.3185C82.5228 38.913 82.842 39.7227 82.842 40.7467C82.842 42.201 82.2673 43.3399 81.118 44.1653C79.9688 44.9917 78.4833 45.4045 76.6634 45.4045C74.4912 45.4045 72.736 44.8345 71.3948 43.6946C70.1743 42.6579 69.4563 41.3264 69.2407 39.7011C69.2036 39.4201 68.9776 39.2068 68.704 39.2029L63.4107 39.1204C63.0887 39.1154 62.8285 39.3965 62.8532 39.7286C63.0033 41.7274 63.6073 43.5286 64.6654 45.1323C65.8308 46.9001 67.4351 48.2876 69.4791 49.2948C71.5221 50.303 73.8691 50.8061 76.52 50.8061C78.9781 50.8061 81.1817 50.3443 83.1297 49.4186C85.0769 48.4939 86.6023 47.2135 87.704 45.5784C88.8058 43.9432 89.3567 42.1017 89.3567 40.0529C89.3567 37.8724 88.8771 36.1134 87.9196 34.775C86.9622 33.4376 85.7085 32.4461 84.1603 31.8015L84.1612 31.8025Z" fill="white"/>
<path d="M116.709 45.1577H115.882C115.403 45.1577 115.027 45.026 114.757 44.7607C114.485 44.4974 114.349 44.067 114.349 43.4725V34.0075C114.349 31.0015 113.423 28.7139 111.572 27.1446C109.72 25.5763 107.539 24.7764 104.123 24.7764C100.897 24.7764 98.3772 25.5016 96.3978 26.9215C94.5931 28.2167 93.5056 29.9904 93.1333 32.2456C93.0753 32.5964 93.3318 32.9177 93.6747 32.9177H98.5424C98.7865 32.9177 99.005 32.7516 99.0696 32.5079C99.2918 31.6737 99.7819 30.9927 100.54 30.465C101.418 29.8538 102.46 29.5482 103.834 29.5482C106.424 29.5482 108.266 31.2 108.266 33.6606V34.43C108.266 34.7445 108.02 34.999 107.716 34.999H103.307C99.7307 34.999 97.0161 35.7261 95.1649 37.1795C93.3128 38.6338 92.3867 40.6984 92.3867 43.3732C92.3867 45.6864 93.233 47.5033 94.9256 48.824C96.1955 49.8145 97.7133 50.3864 99.2757 50.637C100.47 50.8286 101.696 50.8984 102.893 50.6999C104.146 50.4926 105.165 49.958 106.184 49.1955C107.099 48.5115 107.863 47.635 108.56 46.5659C108.9 45.9615 109.792 46.2042 109.792 46.9029V47.7431C109.791 49.2701 110.987 50.5083 112.463 50.5083H116.709C117.013 50.5083 117.259 50.2538 117.259 49.9393V45.7257C117.259 45.4112 117.013 45.1567 116.709 45.1567V45.1577ZM108.267 40.0538C108.267 41.2762 108.019 42.3414 107.524 43.2494C106.487 45.1538 104.631 46.1482 102.542 46.1482C101.328 46.1482 100.355 45.8515 99.6205 45.257C98.8853 44.6625 98.5187 43.8694 98.5187 42.8779C98.5187 41.7557 98.9262 40.8881 99.7402 40.2768C100.554 39.6666 101.711 39.36 103.213 39.36H107.717C108.021 39.36 108.267 39.6145 108.267 39.929V40.0538V40.0538Z" fill="white"/>
<path d="M134.453 15.8374H128.119C124.777 15.8374 122.068 18.6399 122.068 22.0969V24.8474C122.068 25.1619 121.822 25.4164 121.518 25.4164H117.901C117.598 25.4164 117.352 25.6709 117.352 25.9853V30.2481C117.352 30.5626 117.598 30.8171 117.901 30.8171H121.518C121.822 30.8171 122.068 31.0716 122.068 31.386V49.9406C122.068 50.2551 122.314 50.5096 122.618 50.5096H127.553C127.857 50.5096 128.103 50.2551 128.103 49.9406V31.386C128.103 31.0716 128.349 30.8171 128.653 30.8171H134.404C134.708 30.8171 134.954 30.5626 134.954 30.2481V25.9853C134.954 25.6709 134.708 25.4164 134.404 25.4164H128.653C128.349 25.4164 128.103 25.1619 128.103 24.8474V22.376C128.103 21.7471 128.596 21.2381 129.203 21.2381H134.452C134.756 21.2381 135.002 20.9836 135.002 20.6691V16.4064C135.002 16.0919 134.756 15.8374 134.452 15.8374H134.453Z" fill="white"/>
<path d="M158.631 30.5397C157.562 28.6903 156.1 27.2694 154.249 26.2779C152.397 25.2873 150.257 24.7773 147.831 24.7773C145.405 24.7773 143.312 25.3286 141.46 26.4017C139.608 27.4757 138.171 28.9949 137.15 30.9602C136.128 32.9265 135.617 35.2299 135.617 37.8733C135.617 40.5166 136.144 42.7217 137.198 44.687C138.252 46.6523 139.76 48.1637 141.724 49.221C143.687 50.2783 145.994 50.807 148.645 50.807C150.688 50.807 152.516 50.4189 154.129 49.6426C155.741 48.8673 157.042 47.8011 158.032 46.447C158.879 45.2874 159.457 44.0178 159.767 42.6392C159.848 42.2815 159.587 41.9375 159.231 41.9375H154.273C154.036 41.9375 153.828 42.0967 153.752 42.3296C153.402 43.3978 152.786 44.2419 151.902 44.8609C150.911 45.5547 149.682 45.9016 148.214 45.9016C147 45.9016 145.939 45.6372 145.029 45.1086C144.119 44.5809 143.401 43.837 142.874 42.8789C142.666 42.5006 142.496 42.1007 142.36 41.6889C142.215 41.2467 142.11 40.7908 142.038 40.3289C142.013 40.1678 141.99 40.0046 141.971 39.8415C141.934 39.5054 142.192 39.2116 142.519 39.2116H159.616C159.893 39.2116 160.131 38.9994 160.162 38.7134C160.186 38.5041 160.202 38.2909 160.211 38.0717C160.227 37.6757 160.234 37.3122 160.234 36.982C160.234 34.5381 159.7 32.391 158.63 30.5406L158.631 30.5397ZM153.494 34.8997H142.785C142.434 34.8997 142.169 34.5627 142.247 34.2079C142.418 33.4306 142.714 32.729 143.136 32.1001C143.678 31.2914 144.381 30.6713 145.244 30.2419C146.106 29.8125 147.047 29.5973 148.069 29.5973C149.729 29.5973 151.103 30.0601 152.189 30.9848C153.12 31.7788 153.734 32.8519 154.031 34.205C154.109 34.5607 153.846 34.8997 153.494 34.8997V34.8997Z" fill="white"/>
<path d="M50.5405 33.1641H45.8465C44.4446 33.1641 43.3086 34.3393 43.3086 35.7897V42.8383C43.3086 44.2888 42.1726 45.464 40.7707 45.464H22.0965C20.6946 45.464 19.5586 46.6393 19.5586 48.0897V52.946C19.5586 54.3964 20.6946 55.5717 22.0965 55.5717H41.8516C43.2535 55.5717 44.3734 54.3964 44.3734 52.946V49.0497C44.3734 47.5993 45.5093 46.5705 46.9112 46.5705H50.5395C51.9414 46.5705 53.0774 45.3952 53.0774 43.9448V35.7593C53.0774 34.3089 51.9414 33.1641 50.5395 33.1641H50.5405Z" fill="white"/>
<path d="M19.5588 23.5165C19.5588 22.0661 20.6948 20.8908 22.0967 20.8908H40.7595C42.1615 20.8908 43.2974 19.7156 43.2974 18.2652V13.4089C43.2974 11.9585 42.1615 10.7832 40.7595 10.7832H21.0149C19.613 10.7832 18.477 11.9585 18.477 13.4089V17.1508C18.477 18.6012 17.341 19.7765 15.9391 19.7765H12.327C10.925 19.7765 9.78906 20.9518 9.78906 22.4022V30.5966C9.78906 32.047 10.9298 33.1633 12.3317 33.1633H17.0257C18.4276 33.1633 19.5636 31.988 19.5636 30.5376L19.5588 23.5175V23.5165Z" fill="white"/>
<path d="M29.2239 28.0596H33.7326C35.202 28.0596 36.394 29.2938 36.394 30.813V35.4777C36.394 36.9978 35.201 38.2311 33.7326 38.2311H29.2239C27.7545 38.2311 26.5625 36.9969 26.5625 35.4777V30.813C26.5625 29.2928 27.7555 28.0596 29.2239 28.0596V28.0596Z" fill="white"/>
</svg>
