<svg width="51" height="16" viewBox="0 0 51 16" fill="none" xmlns="http://www.w3.org/2000/svg">
<path d="M0.461479 2.4086V13.5914C0.461479 13.8591 0.683525 14.0763 0.957272 14.0763H1.72082C2.11157 14.0763 2.42886 14.3861 2.42886 14.7688V15.5151C2.42886 15.7828 2.65091 16 2.92465 16H4.41311C4.68686 16 4.9089 15.7828 4.9089 15.5151V14.4755C4.9089 14.2078 4.68686 13.9906 4.41311 13.9906H3.22398C2.83322 13.9906 2.51594 13.6808 2.51594 13.2981V2.70135C2.51594 2.31917 2.83268 2.00885 3.22398 2.00885H4.41256C4.68631 2.00885 4.90836 1.79168 4.90836 1.52394V0.484913C4.90836 0.217173 4.68631 0 4.41256 0H2.92411C2.65036 0 2.42832 0.217173 2.42832 0.484913V1.23118C2.42832 1.61336 2.11158 1.92368 1.72028 1.92368H0.956726C0.68298 1.92368 0.460938 2.14086 0.460938 2.4086H0.461479Z" fill="white"/>
<path d="M50.5417 2.40844V13.5905L50.5423 13.5916C50.5423 13.8593 50.3202 14.0764 50.0465 14.0764H49.2829C48.8916 14.0764 48.5749 14.3867 48.5749 14.7689V15.5151C48.5749 15.7828 48.3528 16 48.0791 16H46.5906C46.3169 16 46.0948 15.7828 46.0948 15.5151V14.4756C46.0948 14.2079 46.3169 13.9908 46.5906 13.9908H47.7792C48.1705 13.9908 48.4873 13.6805 48.4873 13.2983V2.70171C48.4873 2.31902 48.17 2.00925 47.7792 2.00925H46.5901C46.3163 2.00925 46.0943 1.79209 46.0943 1.52437V0.484881C46.0943 0.217158 46.3163 0 46.5901 0H48.0786C48.3523 0 48.5743 0.217158 48.5743 0.484881V1.2311C48.5743 1.61379 48.8916 1.92356 49.2824 1.92356H50.0459C50.3197 1.92356 50.5417 2.14071 50.5417 2.40844Z" fill="white"/>
<path d="M25.7861 10.0716H27.7662C27.8612 11.4814 28.6691 12.1784 30.0472 12.1784C31.4094 12.1784 32.2014 11.5764 32.2014 10.7528C32.2014 10.1825 31.9321 9.73898 31.1243 9.42218L29.0492 8.63017C27.5761 8.07576 26.9266 7.0303 26.9266 5.87397C26.9266 4.06818 28.3998 2.5 31.1877 2.5C33.2944 2.5 34.625 3.65634 34.9259 5.54132L34.8151 6.19077H32.9142C32.8192 5.00275 32.2648 4.28994 31.0134 4.28994C29.762 4.28994 29.0017 4.92355 29.0017 5.66804C29.0017 6.26997 29.3343 6.6343 30.063 6.91942L32.1222 7.69559C33.7538 8.3292 34.2923 9.42218 34.2923 10.5627C34.2923 12.5744 32.7242 14 29.8729 14C27.4969 14 25.9129 12.7011 25.6594 10.7211L25.7861 10.0716Z" fill="white"/>
<path fill-rule="evenodd" clip-rule="evenodd" d="M15.8601 6.69766C16.2561 4.38499 14.7513 2.78512 12.2169 2.78512H8.25683L6.32433 13.7149H8.33603L9.00132 9.99242H11.219C13.8326 9.99242 15.48 8.80441 15.8601 6.69766ZM11.409 8.13912H9.31813L9.95174 4.63843H11.9318C13.2782 4.63843 14.0068 5.35124 13.8167 6.46005C13.6267 7.50551 12.7713 8.13912 11.409 8.13912Z" fill="white"/>
<path fill-rule="evenodd" clip-rule="evenodd" d="M22.8503 2.78512H19.9673L14.7401 13.0496L14.6292 13.7149H16.625L17.7972 11.323H22.28L22.6443 13.7149H24.5135L24.6244 13.0496L22.8503 2.78512ZM18.6684 9.51722L20.2208 6.33333C20.5534 5.63636 20.8385 5.03443 21.0603 4.28994H21.3454C21.3613 5.01859 21.4088 5.58884 21.5038 6.31749L21.9949 9.51722H18.6684Z" fill="white"/>
<path d="M37.5271 10.0716H35.5471L35.4203 10.7211C35.6738 12.7011 37.2578 14 39.6338 14C42.4851 14 44.0533 12.5744 44.0533 10.5627C44.0533 9.42218 43.5147 8.3292 41.8831 7.69559L39.8239 6.91942C39.0953 6.6343 38.7626 6.26997 38.7626 5.66804C38.7626 4.92355 39.5229 4.28994 40.7743 4.28994C42.0257 4.28994 42.5801 5.00275 42.6751 6.19077H44.576L44.6869 5.54132C44.3859 3.65634 43.0553 2.5 40.9486 2.5C38.1607 2.5 36.6875 4.06818 36.6875 5.87397C36.6875 7.0303 37.337 8.07576 38.8101 8.63017L40.8852 9.42218C41.6931 9.73898 41.9623 10.1825 41.9623 10.7528C41.9623 11.5764 41.1703 12.1784 39.8081 12.1784C38.43 12.1784 37.6221 11.4814 37.5271 10.0716Z" fill="white"/>
</svg>
