<svg width="24" height="25" viewBox="0 0 24 25" fill="none" xmlns="http://www.w3.org/2000/svg">
<g clip-path="url(#clip0_2055_2244)">
<path d="M23.33 7.15872C23.1082 5.93416 22.0511 5.04235 20.8243 4.76393C18.9886 4.3746 15.5911 4.09619 11.9151 4.09619C8.24144 4.09619 4.78958 4.3746 2.9516 4.76393C1.72702 5.04235 0.667754 5.87758 0.445893 7.15872C0.221861 8.55078 0 10.4997 0 13.0054C0 15.5111 0.221861 17.46 0.500273 18.852C0.724305 20.0766 1.7814 20.9684 3.00598 21.2468C4.95484 21.6361 8.29578 21.9146 11.9717 21.9146C15.6476 21.9146 18.9886 21.6361 20.9375 21.2468C22.162 20.9684 23.2191 20.1332 23.4432 18.852C23.665 17.46 23.9434 15.4545 24 13.0054C23.8869 10.4997 23.6084 8.55078 23.33 7.15872ZM8.90918 16.9031V9.10761L15.702 13.0054L8.90918 16.9031Z" fill="white"/>
</g>
<defs>
<clipPath id="clip0_2055_2244">
<rect width="24" height="24" fill="white" transform="translate(0 0.66748)"/>
</clipPath>
</defs>
</svg>
